<svg width="100" height="100" viewBox="0 0 100 100" fill="none" xmlns="http://www.w3.org/2000/svg">
<path d="M100 50.0027C99.9998 59.8918 97.0668 69.5585 91.5723 77.7807C86.0778 86.0029 78.2686 92.411 69.132 96.195C59.9955 99.9789 49.9421 100.968 40.2431 99.0387C30.5441 97.1089 21.6352 92.3463 14.6429 85.3533C7.65061 78.3603 2.88909 69.4514 0.960321 59.7522C-0.96845 50.053 0.0220062 39.9994 3.80687 30.8632C7.59174 21.7271 14.0009 13.9182 22.2237 8.42454C30.4465 2.93087 40.1138 -0.000508136 50.0029 6.60676e-08C56.5692 -0.000168726 63.071 1.29256 69.1374 3.80544C75.2038 6.31832 80.7157 10.002 85.3585 14.6452C90.0013 19.2885 93.6842 24.8009 96.1964 30.8676C98.7087 36.9343 100.001 43.4365 100 50.0027Z" fill="#FEDD59"/>
<path d="M63.9466 37.9119C62.7809 35.7325 60.9788 33.9599 58.7805 32.8304C56.3219 31.6171 53.6059 31.0182 50.865 31.0845C48.5148 30.985 46.1706 31.395 43.9938 32.2865C41.8169 33.178 39.8589 34.5299 38.2536 36.2494C35.0947 39.6935 33.5146 44.2927 33.5137 50.0477C33.5137 56.1805 35.1729 60.9675 38.4911 64.4082C41.8092 67.8488 46.3751 69.5705 52.1884 69.5731C55.7963 69.6889 59.3437 68.6259 62.2933 66.5449C65.1662 64.3425 67.2708 61.2896 68.3073 57.8211H47.734V45.8722H83.0027V60.9465C81.7539 65.0844 79.6745 68.9244 76.8911 72.2311C73.8926 75.8015 70.1562 78.6802 65.9394 80.6694C61.2584 82.8751 56.1339 83.9779 50.9601 83.8921C44.8233 84.0005 38.7634 82.5149 33.3726 79.5804C28.3111 76.7931 24.1375 72.6354 21.3302 67.585C18.4966 62.1641 17.0166 56.1382 17.0166 50.0214C17.0166 43.9046 18.4966 37.8787 21.3302 32.4578C24.1187 27.3977 28.275 23.2245 33.3237 20.4154C38.6968 17.4784 44.7426 15.992 50.865 16.1024C58.8256 16.1024 65.5411 18.0296 71.0117 21.884C76.4685 25.7191 80.3314 31.4207 81.8697 37.9106L63.9466 37.9119Z" fill="#424242"/>
</svg>
