<svg width="30" height="30" viewBox="0 0 30 30" fill="none" xmlns="http://www.w3.org/2000/svg">
<circle cx="15" cy="15" r="15" fill="#646363"/>
<g clip-path="url(#clip0_11805_821)">
<path d="M15.9162 15.0082L19.81 11.1111C20.0634 10.8576 20.0634 10.4478 19.81 10.1943C19.5567 9.94078 19.1471 9.94078 18.8939 10.1943L14.9999 14.0914L11.1061 10.1943C10.8527 9.94078 10.4433 9.94078 10.1901 10.1943C9.93665 10.4478 9.93665 10.8576 10.1901 11.1111L14.0839 15.0082L10.1901 18.9053C9.93665 19.1588 9.93665 19.5687 10.1901 19.8222C10.3163 19.9486 10.4822 20.0121 10.6481 20.0121C10.8139 20.0121 10.9798 19.9486 11.1061 19.8222L14.9999 15.9251L18.8939 19.8222C19.0202 19.9486 19.1861 20.0121 19.3519 20.0121C19.5178 20.0121 19.6836 19.9486 19.81 19.8222C20.0634 19.5687 20.0634 19.1588 19.81 18.9053L15.9162 15.0082Z" fill="white"/>
</g>
<defs>
<clipPath id="clip0_11805_821">
<rect width="10" height="10" fill="white" transform="translate(10 10)"/>
</clipPath>
</defs>
</svg>
