<svg width="35" height="20" viewBox="0 0 35 20" fill="none" xmlns="http://www.w3.org/2000/svg">
<rect width="35" height="20" rx="10" fill="#BF3931"/>
<path d="M10.4964 5.54545V15H9.06534V6.97656H9.00994L6.74787 8.45384V7.08736L9.10689 5.54545H10.4964ZM15.8255 15.157C15.0961 15.1539 14.4729 14.9615 13.9559 14.5799C13.4388 14.1983 13.0433 13.6428 12.7694 12.9134C12.4955 12.1839 12.3586 11.3053 12.3586 10.2773C12.3586 9.25249 12.4955 8.37689 12.7694 7.65057C13.0464 6.92424 13.4434 6.37026 13.9605 5.98864C14.4806 5.60701 15.1023 5.41619 15.8255 5.41619C16.5488 5.41619 17.1689 5.60855 17.686 5.99325C18.203 6.37488 18.5985 6.92886 18.8724 7.65518C19.1494 8.37843 19.2879 9.25249 19.2879 10.2773C19.2879 11.3084 19.1509 12.1886 18.877 12.918C18.6031 13.6443 18.2076 14.1998 17.6906 14.5845C17.1735 14.9661 16.5519 15.157 15.8255 15.157ZM15.8255 13.9244C16.4657 13.9244 16.9658 13.612 17.3259 12.9872C17.689 12.3625 17.8706 11.4592 17.8706 10.2773C17.8706 9.49254 17.7875 8.82931 17.6213 8.28764C17.4582 7.7429 17.2228 7.33049 16.915 7.05043C16.6103 6.76728 16.2472 6.62571 15.8255 6.62571C15.1885 6.62571 14.6883 6.93963 14.3252 7.56747C13.962 8.19531 13.7789 9.0986 13.7758 10.2773C13.7758 11.0652 13.8574 11.7315 14.0205 12.2763C14.1867 12.8179 14.4221 13.2288 14.7268 13.5089C15.0315 13.7859 15.3977 13.9244 15.8255 13.9244ZM23.2032 13.4119V7.17045H24.445V13.4119H23.2032ZM20.7056 10.9098V9.67258H26.9471V10.9098H20.7056Z" fill="white"/>
</svg>
