<svg width="35" height="35" viewBox="0 0 35 35" fill="none" xmlns="http://www.w3.org/2000/svg">
<rect width="35" height="35" rx="12" fill="#555555"/>
<g clip-path="url(#clip0_0_1)">
<path d="M23.0976 8.1123H10.9024C9.86745 8.1123 8.87485 8.52345 8.143 9.2553C7.41115 9.98715 7 10.9798 7 12.0147L7 18.9391C7 19.9741 7.41115 20.9667 8.143 21.6986C8.87485 22.4304 9.86745 22.8416 10.9024 22.8416H13.8361L10.7293 25.7816C10.6129 25.8917 10.5194 26.0236 10.454 26.1698C10.3886 26.3161 10.3527 26.4737 10.3482 26.6339C10.3438 26.794 10.3709 26.9534 10.4281 27.1031C10.4853 27.2527 10.5714 27.3896 10.6815 27.506C10.9038 27.741 11.2104 27.878 11.5338 27.887C11.6939 27.8914 11.8533 27.8643 12.0029 27.8071C12.1526 27.7499 12.2895 27.6639 12.4059 27.5538L15.7805 24.3606V26.6679C15.7805 26.9914 15.909 27.3015 16.1377 27.5302C16.3664 27.7589 16.6766 27.8874 17 27.8874C17.3234 27.8874 17.6336 27.7589 17.8623 27.5302C18.091 27.3015 18.2195 26.9914 18.2195 26.6679V24.3606L21.5941 27.5543C21.7104 27.6643 21.8472 27.7505 21.9968 27.8077C22.1463 27.8649 22.3057 27.8921 22.4657 27.8877C22.6258 27.8833 22.7834 27.8475 22.9296 27.7822C23.0758 27.7169 23.2077 27.6235 23.3178 27.5072C23.4279 27.3909 23.514 27.2541 23.5712 27.1046C23.6284 26.955 23.6556 26.7957 23.6513 26.6356C23.6469 26.4755 23.611 26.3179 23.5457 26.1717C23.4804 26.0255 23.387 25.8936 23.2707 25.7835L20.1639 22.8435H23.0976C24.1326 22.8435 25.1252 22.4324 25.857 21.7005C26.5889 20.9687 27 19.9761 27 18.9411V12.0147C27 10.9798 26.5889 9.98715 25.857 9.2553C25.1252 8.52345 24.1326 8.1123 23.0976 8.1123ZM22.7317 19.306H11.2683C11.0095 19.306 10.7614 19.2032 10.5784 19.0202C10.3955 18.8373 10.2927 18.5891 10.2927 18.3304C10.2927 18.0716 10.3955 17.8235 10.5784 17.6405C10.7614 17.4575 11.0095 17.3547 11.2683 17.3547H22.7317C22.9905 17.3547 23.2386 17.4575 23.4216 17.6405C23.6045 17.8235 23.7073 18.0716 23.7073 18.3304C23.7073 18.5891 23.6045 18.8373 23.4216 19.0202C23.2386 19.2032 22.9905 19.306 22.7317 19.306ZM22.7317 16.4528H11.2683C11.0095 16.4528 10.7614 16.35 10.5784 16.167C10.3955 15.9841 10.2927 15.7359 10.2927 15.4772C10.2927 15.2184 10.3955 14.9703 10.5784 14.7873C10.7614 14.6044 11.0095 14.5016 11.2683 14.5016H22.7317C22.9905 14.5016 23.2386 14.6044 23.4216 14.7873C23.6045 14.9703 23.7073 15.2184 23.7073 15.4772C23.7073 15.7359 23.6045 15.9841 23.4216 16.167C23.2386 16.35 22.9905 16.4528 22.7317 16.4528ZM22.7317 13.5996H15.7805C15.5217 13.5996 15.2736 13.4968 15.0906 13.3139C14.9077 13.1309 14.8049 12.8828 14.8049 12.624C14.8049 12.3653 14.9077 12.1171 15.0906 11.9342C15.2736 11.7512 15.5217 11.6484 15.7805 11.6484H22.7317C22.9905 11.6484 23.2386 11.7512 23.4216 11.9342C23.6045 12.1171 23.7073 12.3653 23.7073 12.624C23.7073 12.8828 23.6045 13.1309 23.4216 13.3139C23.2386 13.4968 22.9905 13.5996 22.7317 13.5996Z" fill="#747474"/>
</g>
<defs>
<clipPath id="clip0_0_1">
<rect width="20" height="20" fill="white" transform="translate(7 8)"/>
</clipPath>
</defs>
</svg>
